# xmcd
#
# Track frame offsets: 
#        183
#        15178
#        31068
#        47630
#        62073
#        76068
#        89990
#        102560
#        115313
#        132318
#        144275
#        162883
#        175900
#        189060
#        203508
#        218880
#        230613
#        242360
#        257920
#        274975
#
# Disc length: 3871 seconds
#
# Revision: 2
# Processed by: cddbd v1.5.1PL2 Copyright (c) Steve Scherf et al.
# Submitted via: ExactAudioCopy v0.95a5
#
DISCID=0c0f1d14
DTITLE=Long John Baldry - Long John Baldry
DYEAR=1990
DGENRE=
TTITLE0=Let the Heartaches Begin
TTITLE1=Stay With Me
TTITLE2=Deep River Mountain High
TTITLE3=Lights of Cincinnatti
TTITLE4=Sunshine of Your Love
TTITLE5=For All We Know
TTITLE6=Better By Far
TTITLE7=Smile
TTITLE8=Spanish Harlem
TTITLE9=Everytime We Say Goodbye
TTITLE10=MacArthur Park
TTITLE11=We're Together
TTITLE12=Mexico
TTITLE13=Annabella (Who Flies to me when She's Lonely)
TTITLE14=Spinning Wheel
TTITLE15=Cry like a Baby
TTITLE16=How Sweet it is (To be Loved by You)
TTITLE17=Since I Lost You Baby
TTITLE18=Wait For Me
TTITLE19=Wise to the Ways of the World
EXTD=
EXTT0=
EXTT1=
EXTT2=
EXTT3=
EXTT4=
EXTT5=
EXTT6=
EXTT7=
EXTT8=
EXTT9=
EXTT10=
EXTT11=
EXTT12=
EXTT13=
EXTT14=
EXTT15=
EXTT16=
EXTT17=
EXTT18=
EXTT19=
PLAYORDER=
